<?xml version="1.0" standalone="no"?>
<!DOCTYPE svg PUBLIC "-//W3C//DTD SVG 20010904//EN"
 "http://www.w3.org/TR/2001/REC-SVG-20010904/DTD/svg10.dtd">
<svg version="1.0" xmlns="http://www.w3.org/2000/svg"
 width="800.000000pt" height="800.000000pt" viewBox="0 0 800.000000 800.000000"
 preserveAspectRatio="xMidYMid meet">
<metadata>
Created by potrace 1.11, written by Peter Selinger 2001-2013
</metadata>
<g transform="translate(0.000000,800.000000) scale(0.100000,-0.100000)"
fill="#000000" stroke="none">
<path d="M3705 7989 c-825 -65 -1567 -359 -2217 -877 -171 -136 -464 -429
-602 -602 -693 -868 -994 -1947 -850 -3040 95 -721 386 -1398 850 -1980 138
-173 431 -466 604 -604 732 -584 1596 -886 2537 -886 109 0 173 4 173 10 0 6
-17 10 -37 10 -58 0 -302 38 -455 70 -600 127 -1173 400 -1668 796 -172 137
-464 430 -604 604 -483 603 -766 1282 -863 2070 -24 204 -24 676 0 880 97 788
380 1466 863 2070 138 173 431 466 604 604 493 394 1068 669 1666 795 154 33
399 71 457 71 20 0 37 5 37 10 0 12 -343 11 -495 -1z"/>
</g>
</svg>
